<?xml version="1.0" encoding="iso-8859-1"?>
<!-- Generator: Adobe Illustrator 19.0.0, SVG Export Plug-In . SVG Version: 6.00 Build 0)  -->
<svg version="1.1" id="Layer_1" xmlns="http://www.w3.org/2000/svg" xmlns:xlink="http://www.w3.org/1999/xlink" x="0px" y="0px"
	 viewBox="0 0 512 512" style="enable-background:new 0 0 512 512;" xml:space="preserve">
<path style="fill:#E4EAF8;" d="M469.779,401.37H42.221c-18.891,0-34.205-15.314-34.205-34.205V110.63
	c0-18.891,15.314-34.205,34.205-34.205h427.557c18.891,0,34.205,15.314,34.205,34.205v256.534
	C503.983,386.055,488.669,401.37,469.779,401.37z"/>
<path style="fill:#D5DCED;" d="M153.386,290.205c-47.227,0-85.511,38.285-85.511,85.512c0,8.939,1.382,17.553,3.927,25.653h163.169
	c2.545-8.1,3.927-16.714,3.927-25.653C238.898,328.489,200.613,290.205,153.386,290.205z"/>
<path style="fill:#AFB9D2;" d="M256,367.165H50.772c-4.722,0-8.551-3.829-8.551-8.551V119.182c0-4.722,3.829-8.551,8.551-8.551H256
	c4.722,0,8.551,3.829,8.551,8.551v239.432C264.551,363.336,260.722,367.165,256,367.165z"/>
<path style="fill:#959CB5;" d="M68.307,367.165h170.158c-4.292-43.211-40.739-76.96-85.08-76.96S72.598,323.954,68.307,367.165z"/>
<path style="fill:#E4EAF8;" d="M221.795,332.96c4.722,0,8.551-3.829,8.551-8.551v-21.878c0-7.361-4.711-13.897-11.694-16.225
	l-33.779-11.26c-3.486-1.162-5.839-4.42-5.847-8.094l-0.032-15.206c5.338-2.669,8.9-7.928,9.395-13.876l1.868-20.362
	c3.579-3.135,5.884-7.684,5.884-12.815v-51.307h-59.858c-14.168,0-25.653,11.485-25.653,25.653v25.653
	c0,5.131,2.307,9.681,5.884,12.815l1.868,20.362c0.495,5.947,4.056,11.207,9.395,13.876l-0.032,15.206
	c-0.007,3.674-2.361,6.933-5.847,8.094l-33.779,11.26c-6.984,2.328-11.694,8.863-11.694,16.225v21.878
	c0,4.722,3.829,8.551,8.551,8.551H221.795z"/>
<path style="fill:#D5DCED;" d="M84.977,332.96h136.818c1.745,0,3.275-0.651,4.628-1.549c-15-24.672-42.053-41.207-73.037-41.207
	s-58.038,16.535-73.038,41.207C81.702,332.309,83.232,332.96,84.977,332.96z"/>
<circle style="fill:#9BF57D;" cx="315.858" cy="221.795" r="17.102"/>
<g>
	<circle style="fill:#FFDC64;" cx="384.267" cy="221.795" r="17.102"/>
	<circle style="fill:#FFDC64;" cx="452.676" cy="221.795" r="17.102"/>
</g>
<circle style="fill:#9BF57D;" cx="153.386" cy="375.716" r="59.858"/>
<path d="M469.779,68.409H42.221C18.941,68.409,0,87.35,0,110.63v256.534c0,23.28,18.941,42.221,42.221,42.221h52.268
	c11.716,20.414,33.719,34.205,58.897,34.205s47.181-13.791,58.897-34.205h257.495c23.28,0,42.221-18.941,42.221-42.221V110.63
	C512,87.35,493.059,68.409,469.779,68.409z M108.408,324.944H84.977c-0.295,0-0.534-0.241-0.534-0.534v-21.878
	c0-3.918,2.497-7.381,6.212-8.62l33.779-11.259c6.761-2.253,11.313-8.556,11.329-15.683l0.032-15.206
	c0.006-3.043-1.71-5.827-4.432-7.188c-2.817-1.408-4.729-4.233-4.996-7.438l-1.868-20.362c-0.188-2.047-1.154-3.943-2.701-5.297
	c-2.031-1.78-3.15-4.189-3.15-6.785v-25.653c0-9.725,7.912-17.637,17.637-17.637h51.84v43.29c0,2.596-1.119,5.006-3.15,6.785
	c-1.547,1.354-2.513,3.252-2.701,5.297l-1.874,20.43c-0.262,3.138-2.174,5.962-4.991,7.371c-2.721,1.361-4.438,4.145-4.432,7.188
	l0.032,15.206c0.015,7.126,4.567,13.428,11.329,15.683l33.779,11.259c3.715,1.239,6.212,4.702,6.212,8.62v21.878
	c0,0.294-0.239,0.534-0.534,0.534h-23.431c-11.986-10.629-27.736-17.102-44.978-17.102S120.394,314.315,108.408,324.944z
	 M211.668,340.977h10.128c9.136,0,16.568-7.432,16.568-16.568v-21.878c0-10.829-6.903-20.405-17.176-23.83l-33.779-11.259
	c-0.218-0.073-0.365-0.276-0.366-0.506l-0.022-10.867c5.317-4.268,8.781-10.613,9.352-17.465l1.607-17.512
	c3.96-4.55,6.18-10.365,6.18-16.399v-51.307c0-4.427-3.589-8.017-8.017-8.017h-59.858c-18.566,0-33.67,15.105-33.67,33.67v25.653
	c0,6.034,2.22,11.849,6.18,16.399l1.601,17.443c0.575,6.905,4.041,13.262,9.357,17.532l-0.022,10.867
	c0,0.23-0.148,0.433-0.366,0.506l-33.779,11.26c-10.273,3.424-17.176,13.001-17.176,23.83v21.878
	c0,9.136,7.432,16.568,16.568,16.568h10.128c-3.345,5.589-5.909,11.696-7.539,18.171H50.772c-0.295,0-0.534-0.241-0.534-0.534
	V119.182c0-0.294,0.239-0.534,0.534-0.534H256c0.295,0,0.534,0.24,0.534,0.534v239.432c0,0.294-0.239,0.534-0.534,0.534h-36.792
	C217.576,352.673,215.012,346.566,211.668,340.977z M153.386,427.557c-28.585,0-51.841-23.256-51.841-51.841
	c0-28.585,23.256-51.841,51.841-51.841s51.841,23.256,51.841,51.841C205.228,404.302,181.972,427.557,153.386,427.557z
	 M495.967,367.165c0,14.44-11.748,26.188-26.188,26.188H218.922c1.516-5.628,2.339-11.537,2.339-17.637
	c0-0.178-0.012-0.356-0.014-0.534H256c9.136,0,16.568-7.432,16.568-16.568V119.182c0-9.136-7.432-16.568-16.568-16.568H50.772
	c-9.136,0-16.568,7.432-16.568,16.568v239.432c0,9.136,7.432,16.568,16.568,16.568h34.753c-0.001,0.178-0.014,0.356-0.014,0.534
	c0,6.1,0.822,12.009,2.338,17.637H42.221c-14.44,0-26.188-11.748-26.188-26.188V110.63c0-14.44,11.748-26.188,26.188-26.188h427.557
	c14.44,0,26.188,11.748,26.188,26.188V367.165z"/>
<path d="M173.13,353.197l-26.115,28.489l-14.066-12.056c-3.363-2.882-8.422-2.493-11.304,0.869s-2.493,8.423,0.869,11.304
	l19.953,17.102c1.509,1.293,3.365,1.93,5.214,1.93c2.172,0,4.334-0.878,5.912-2.6l31.354-34.205
	c2.992-3.263,2.771-8.334-0.493-11.326C181.192,349.712,176.122,349.933,173.13,353.197z"/>
<path d="M298.756,135.749h119.716c4.427,0,8.017-3.589,8.017-8.017c0-4.427-3.589-8.017-8.017-8.017H298.756
	c-4.427,0-8.017,3.589-8.017,8.017C290.739,132.16,294.328,135.749,298.756,135.749z"/>
<path d="M298.756,169.954h162.472c4.427,0,8.017-3.589,8.017-8.017s-3.589-8.017-8.017-8.017H298.756
	c-4.427,0-8.017,3.589-8.017,8.017S294.328,169.954,298.756,169.954z"/>
<path d="M461.228,273.637H350.063c-4.427,0-8.017,3.589-8.017,8.017c0,4.427,3.589,8.017,8.017,8.017h111.165
	c4.427,0,8.017-3.589,8.017-8.017C469.244,277.226,465.655,273.637,461.228,273.637z"/>
<path d="M315.858,273.637h-17.102c-4.427,0-8.017,3.589-8.017,8.017c0,4.427,3.589,8.017,8.017,8.017h17.102
	c4.427,0,8.017-3.589,8.017-8.017C323.875,277.226,320.285,273.637,315.858,273.637z"/>
<path d="M435.574,307.841h-85.511c-4.427,0-8.017,3.589-8.017,8.017c0,4.427,3.589,8.017,8.017,8.017h85.511
	c4.427,0,8.017-3.589,8.017-8.017C443.591,311.431,440.001,307.841,435.574,307.841z"/>
<path d="M315.858,307.841h-17.102c-4.427,0-8.017,3.589-8.017,8.017c0,4.427,3.589,8.017,8.017,8.017h17.102
	c4.427,0,8.017-3.589,8.017-8.017C323.875,311.431,320.285,307.841,315.858,307.841z"/>
<path d="M435.574,342.046h-85.511c-4.427,0-8.017,3.589-8.017,8.017c0,4.427,3.589,8.017,8.017,8.017h85.511
	c4.427,0,8.017-3.589,8.017-8.017C443.591,345.635,440.001,342.046,435.574,342.046z"/>
<path d="M315.858,342.046h-17.102c-4.427,0-8.017,3.589-8.017,8.017c0,4.427,3.589,8.017,8.017,8.017h17.102
	c4.427,0,8.017-3.589,8.017-8.017C323.875,345.635,320.285,342.046,315.858,342.046z"/>
<path d="M315.858,196.676c-13.851,0-25.119,11.268-25.119,25.119c0,13.851,11.268,25.119,25.119,25.119
	c13.851,0,25.119-11.268,25.119-25.119C340.977,207.945,329.709,196.676,315.858,196.676z M315.858,230.881
	c-5.01,0-9.086-4.076-9.086-9.086s4.076-9.086,9.086-9.086s9.086,4.076,9.086,9.086S320.868,230.881,315.858,230.881z"/>
<path d="M359.148,221.795c0,13.851,11.268,25.119,25.119,25.119c13.851,0,25.119-11.268,25.119-25.119
	c0-13.851-11.268-25.119-25.119-25.119C370.417,196.676,359.148,207.945,359.148,221.795z M393.353,221.795
	c0,5.01-4.076,9.086-9.086,9.086s-9.086-4.076-9.086-9.086s4.076-9.086,9.086-9.086S393.353,216.786,393.353,221.795z"/>
<path d="M452.676,196.676c-13.851,0-25.119,11.268-25.119,25.119c0,13.851,11.268,25.119,25.119,25.119s25.119-11.268,25.119-25.119
	C477.795,207.945,466.527,196.676,452.676,196.676z M452.676,230.881c-5.01,0-9.086-4.076-9.086-9.086s4.076-9.086,9.086-9.086
	s9.086,4.076,9.086,9.086S457.686,230.881,452.676,230.881z"/>
<g>
</g>
<g>
</g>
<g>
</g>
<g>
</g>
<g>
</g>
<g>
</g>
<g>
</g>
<g>
</g>
<g>
</g>
<g>
</g>
<g>
</g>
<g>
</g>
<g>
</g>
<g>
</g>
<g>
</g>
</svg>
